<?xml version="1.0" encoding="UTF-8"?><svg xmlns="http://www.w3.org/2000/svg" xmlns:xlink="http://www.w3.org/1999/xlink" height="498.8" preserveAspectRatio="xMidYMid meet" version="1.0" viewBox="-0.0 0.0 63.1 498.8" width="63.1" zoomAndPan="magnify"><g id="change1_1"><path d="M63.1,12.1c0,6.7-4.7,12.1-10.6,12.1s-10.6-5.4-10.6-12.1S46.7,0,52.5,0S63.1,5.4,63.1,12.1z M63.1,48.6 c0,6.7-4.7,12.1-10.6,12.1s-10.6-5.4-10.6-12.1s4.7-12.1,10.6-12.1S63.1,41.9,63.1,48.6z M63.1,85.1c0,6.7-4.7,12.1-10.6,12.1 s-10.6-5.4-10.6-12.1S46.7,73,52.5,73S63.1,78.4,63.1,85.1z M63.1,121.6c0,6.7-4.7,12.1-10.6,12.1s-10.6-5.4-10.6-12.1 s4.7-12.1,10.6-12.1S63.1,114.9,63.1,121.6z M63.1,158.2c0,6.7-4.7,12.1-10.6,12.1s-10.6-5.4-10.6-12.1S46.7,146,52.5,146 S63.1,151.4,63.1,158.2z M63.1,194.7c0,6.7-4.7,12.1-10.6,12.1s-10.6-5.4-10.6-12.1c0-6.7,4.7-12.1,10.6-12.1S63.1,188,63.1,194.7z M63.1,231.2c0,6.7-4.7,12.1-10.6,12.1s-10.6-5.4-10.6-12.1c0-6.7,4.7-12.1,10.6-12.1S63.1,224.5,63.1,231.2z M63.1,267.7 c0,6.7-4.7,12.1-10.6,12.1s-10.6-5.4-10.6-12.1s4.7-12.1,10.6-12.1S63.1,261,63.1,267.7z M63.1,304.2c0,6.7-4.7,12.1-10.6,12.1 s-10.6-5.4-10.6-12.1S46.7,292,52.5,292S63.1,297.5,63.1,304.2z M63.1,340.7c0,6.7-4.7,12.1-10.6,12.1s-10.6-5.4-10.6-12.1 s4.7-12.1,10.6-12.1S63.1,334,63.1,340.7z M63.1,377.2c0,6.7-4.7,12.1-10.6,12.1s-10.6-5.4-10.6-12.1c0-6.7,4.7-12.1,10.6-12.1 S63.1,370.5,63.1,377.2z M63.1,413.7c0,6.7-4.7,12.1-10.6,12.1s-10.6-5.4-10.6-12.1c0-6.7,4.7-12.1,10.6-12.1S63.1,407,63.1,413.7z M63.1,450.2c0,6.7-4.7,12.1-10.6,12.1s-10.6-5.4-10.6-12.1c0-6.7,4.7-12.1,10.6-12.1S63.1,443.5,63.1,450.2z M63.1,486.7 c0,6.7-4.7,12.1-10.6,12.1s-10.6-5.4-10.6-12.1c0-6.7,4.7-12.1,10.6-12.1S63.1,480,63.1,486.7z"/></g><linearGradient gradientUnits="userSpaceOnUse" id="a" x1=".125" x2="57.883" xlink:actuate="onLoad" xlink:show="other" xlink:type="simple" xmlns:xlink="http://www.w3.org/1999/xlink" y1="249.412" y2="249.412"><stop offset=".008" stop-color="#a7a9ac"/><stop offset=".283" stop-color="#d2d3d5"/><stop offset=".531" stop-color="#fff"/><stop offset="1" stop-color="#a7a9ac"/></linearGradient><path d="M51.4,18.7H6.6c-3.6,0-6.5-2.9-6.5-6.5 v0c0-3.6,2.9-6.5,6.5-6.5h44.7c3.6,0,6.5,2.9,6.5,6.5v0C57.9,15.7,54.9,18.7,51.4,18.7z M51.4,55.2H6.6c-3.6,0-6.5-2.9-6.5-6.5v0 c0-3.6,2.9-6.5,6.5-6.5h44.7c3.6,0,6.5,2.9,6.5,6.5v0C57.9,52.2,54.9,55.2,51.4,55.2z M51.4,91.7H6.6c-3.6,0-6.5-2.9-6.5-6.5v0 c0-3.6,2.9-6.5,6.5-6.5h44.7c3.6,0,6.5,2.9,6.5,6.5v0C57.9,88.7,54.9,91.7,51.4,91.7z M51.4,128.2H6.6c-3.6,0-6.5-2.9-6.5-6.5v0 c0-3.6,2.9-6.5,6.5-6.5h44.7c3.6,0,6.5,2.9,6.5,6.5v0C57.9,125.2,54.9,128.2,51.4,128.2z M51.4,164.7H6.6c-3.6,0-6.5-2.9-6.5-6.5 l0,0c0-3.6,2.9-6.5,6.5-6.5h44.7c3.6,0,6.5,2.9,6.5,6.5l0,0C57.9,161.7,54.9,164.7,51.4,164.7z M51.4,201.2H6.6 c-3.6,0-6.5-2.9-6.5-6.5v0c0-3.6,2.9-6.5,6.5-6.5h44.7c3.6,0,6.5,2.9,6.5,6.5v0C57.9,198.2,54.9,201.2,51.4,201.2z M51.4,237.7H6.6 c-3.6,0-6.5-2.9-6.5-6.5v0c0-3.6,2.9-6.5,6.5-6.5h44.7c3.6,0,6.5,2.9,6.5,6.5v0C57.9,234.7,54.9,237.7,51.4,237.7z M51.4,274.2H6.6 c-3.6,0-6.5-2.9-6.5-6.5l0,0c0-3.6,2.9-6.5,6.5-6.5h44.7c3.6,0,6.5,2.9,6.5,6.5l0,0C57.9,271.3,54.9,274.2,51.4,274.2z M51.4,310.7 H6.6c-3.6,0-6.5-2.9-6.5-6.5l0,0c0-3.6,2.9-6.5,6.5-6.5h44.7c3.6,0,6.5,2.9,6.5,6.5l0,0C57.9,307.8,54.9,310.7,51.4,310.7z M51.4,347.2H6.6c-3.6,0-6.5-2.9-6.5-6.5l0,0c0-3.6,2.9-6.5,6.5-6.5h44.7c3.6,0,6.5,2.9,6.5,6.5l0,0 C57.9,344.3,54.9,347.2,51.4,347.2z M51.4,383.7H6.6c-3.6,0-6.5-2.9-6.5-6.5v0c0-3.6,2.9-6.5,6.5-6.5h44.7c3.6,0,6.5,2.9,6.5,6.5v0 C57.9,380.8,54.9,383.7,51.4,383.7z M51.4,420.2H6.6c-3.6,0-6.5-2.9-6.5-6.5v0c0-3.6,2.9-6.5,6.5-6.5h44.7c3.6,0,6.5,2.9,6.5,6.5v0 C57.9,417.3,54.9,420.2,51.4,420.2z M51.4,456.7H6.6c-3.6,0-6.5-2.9-6.5-6.5v0c0-3.6,2.9-6.5,6.5-6.5h44.7c3.6,0,6.5,2.9,6.5,6.5v0 C57.9,453.8,54.9,456.7,51.4,456.7z M51.4,493.2H6.6c-3.6,0-6.5-2.9-6.5-6.5v0c0-3.6,2.9-6.5,6.5-6.5h44.7c3.6,0,6.5,2.9,6.5,6.5v0 C57.9,490.3,54.9,493.2,51.4,493.2z" fill="url(#a)" stroke="#A7A9AC" stroke-miterlimit="10" stroke-width=".25"/></svg>